<?xml version="1.0" encoding="utf-8"?>
<!-- Generator: Adobe Illustrator 24.2.1, SVG Export Plug-In . SVG Version: 6.00 Build 0)  -->
<svg version="1.1" id="Capa_1" xmlns="http://www.w3.org/2000/svg" xmlns:xlink="http://www.w3.org/1999/xlink" x="0px" y="0px"
	 viewBox="0 0 102.7 114.5" style="enable-background:new 0 0 102.7 114.5;" xml:space="preserve">
<style type="text/css">
	.st0{fill:#003576;}
	.st1{opacity:0.7;fill:#003576;}
</style>
<g>
	<g>
		<g>
			<path class="st0" d="M77.7,40.2c1.5,0,2.8-1.2,2.8-2.8v-9.3c0-1.5-1.2-2.8-2.8-2.8h-13c-1.5,0-2.8,1.2-2.8,2.8v9.3
				c0,1.5,1.2,2.8,2.8,2.8h2.8v1.9h-1.9V44h4.7v9.3h-3.8c-0.8-0.7-1.6-1.3-2.7-1.6c0-0.1,0-0.2,0-0.3c0-4.1-3.3-7.4-7.4-7.4
				c-2.6,0-4.9,1.3-6.3,3.4c-1-0.4-2-0.7-3-0.7c-3.1,0-5.9,1.9-6.9,4.8c-0.7,0.2-1.4,0.4-2,0.8h-6.9v-2.8h3.7c1.5,0,2.8-1.2,2.8-2.8
				V28.2c0-1.5-1.2-2.8-2.8-2.8h-9.3c-1.5,0-2.8,1.2-2.8,2.8v18.5c0,1.5,1.2,2.8,2.8,2.8h3.7v4.6h6.8c-0.4,0.6-0.7,1.2-0.9,1.9h-4
				v10.2h-3.7c-1.5,0-2.8,1.2-2.8,2.8v8.3h-1.9v2.8c0,1.5,1.2,2.8,2.8,2.8h14.9c1.5,0,2.8-1.2,2.8-2.8v-2.8h-1.9V69
				c0-1.5-1.2-2.8-2.8-2.8H33v-8.3h1.9c0,3.6,2.9,6.5,6.5,6.5h20.5c3.3,0,6-2.4,6.5-5.5h3.8v7.4h-6.5v16.6h14.8V66.2h-6.5v-9.3h-5.7
				c-0.1-0.7-0.3-1.3-0.6-1.9H72V44h4.7v-1.9h-1.8v-1.9H77.7L77.7,40.2z M35.8,40.2H24.6V31h11.2L35.8,40.2L35.8,40.2z M25.5,27.3
				h9.3c0.5,0,0.9,0.4,0.9,0.9v0.9H24.6v-0.9C24.6,27.7,25,27.3,25.5,27.3z M24.6,46.7v-4.6h11.2v4.6c0,0.5-0.4,0.9-0.9,0.9h-9.3
				C25,47.6,24.6,47.2,24.6,46.7z M41.4,80.1c0,0.5-0.4,0.9-0.9,0.9H25.5c-0.5,0-0.9-0.4-0.9-0.9v-0.9h16.8V80.1L41.4,80.1z
				 M39.5,68.9v8.3h-13V69c0-0.5,0.4-0.9,0.9-0.9h11.2C39.1,68,39.5,68.4,39.5,68.9z M67.4,81v-5.5h11.2V81H67.4z M78.6,73.6H67.4
				V68h11.2V73.6z M61.8,62.4H41.4c-2.6,0-4.7-2.1-4.7-4.6c0-2.3,1.8-4.3,4.1-4.6l0.6-0.1l0.2-0.6c0.7-2.3,2.9-4,5.4-4
				c1,0,2,0.3,2.9,0.8l0.9,0.6l0.4-0.9c0.9-2,2.9-3.2,5-3.2c3.1,0,5.6,2.5,5.6,5.5c0,0.3,0,0.5-0.1,0.8l-0.1,0.9l0.9,0.1
				c2.2,0.4,3.9,2.3,3.9,4.6C66.5,60.4,64.4,62.4,61.8,62.4z M64.6,27.3h13c0.5,0,0.9,0.4,0.9,0.9v6.5H63.7v-6.5
				C63.7,27.7,64.1,27.3,64.6,27.3z M63.7,37.5v-0.9h14.9v0.9c0,0.5-0.4,0.9-0.9,0.9h-13C64.1,38.4,63.7,38,63.7,37.5z M73,42.1
				h-3.7v-1.9H73V42.1z"/>
			<path class="st1" d="M69.3,69.9h1.9v1.9h-1.9V69.9z"/>
			<path class="st1" d="M74.9,77.3h1.9v1.9h-1.9V77.3z"/>
			<path class="st1" d="M73,69.9h3.7v1.9H73V69.9z"/>
			<path class="st1" d="M69.3,77.3H73v1.9h-3.7V77.3z"/>
		</g>
	</g>
</g>
</svg>
