<?xml version="1.0" encoding="utf-8"?>
<!-- Generator: Adobe Illustrator 24.2.1, SVG Export Plug-In . SVG Version: 6.00 Build 0)  -->
<svg version="1.1" id="Capa_1" xmlns="http://www.w3.org/2000/svg" xmlns:xlink="http://www.w3.org/1999/xlink" x="0px" y="0px"
	 viewBox="0 0 102.7 114.5" style="enable-background:new 0 0 102.7 114.5;" xml:space="preserve">
<style type="text/css">
	.st0{fill:#003576;}
	.st1{opacity:0.7;}
</style>
<g>
	<g>
		<g>
			<g>
				<path class="st0" d="M79.9,82.2c0.3-2.9,0-5.8,0.1-8.7c-0.1-4.4,6.9-0.7,7.1-7.8c0-4.7,0-9.3,0-14c0-3.3-2.1-5.4-5.4-5.4
					c-11.7,0-23.5,0-35.2,0c-3,0.1-5.2,2.1-5.3,5.1c-0.1,4.8-0.1,9.5,0,14.3c0.4,9.5,13.6,1.8,14.2,7.2c0.4,2.9-9,1.7-11,1.5
					c-10.2-2.5-6.4-15.9-6.9-23.6c0.2-4.6,4.1-8.2,8.7-8.3c7.4,0,14.8,0,22.2,0c23.2-0.7,23,0.4,22.5,23.1c-0.2,8.5-7,7.4-7.1,10.1
					c-0.4,2.6,1.2,12.3-1.1,13.1c-3.1,1.8-13.8-15.1-17.4-14c-2-0.2-6.2,1-6.5-1.8c0-1,0.7-1.9,1.9-1.9c2.9,0.2,6.6-1.1,8.9,1
					C73,75.4,76.2,79.1,79.9,82.2z"/>
			</g>
			<g class="st1">
				<path class="st0" d="M19.8,71.6c4.1-3.2,7.3-7.5,11.3-10.9c1.7-1.2,3.8,1,2.6,2.6c-4.4,4.7-9.1,9.1-13.6,13.7
					c-1.2,1.9-4.2,1.5-4-1c-0.4-2.2,1.1-12.5-1.1-12.5c-9.2-3.4-5.2-15-6-22.6c0-5.1,4-9,9.1-9c11.8,0,23.7,0,35.5,0
					c3.2,0,5.7,1.4,7.4,4c1.8,2.4-1.6,4.6-3.1,2.1c-1.3-4.7-33.2-1.4-39.9-2.3c-3.1,0-5.2,2.1-5.2,5.3c0,4.7,0,9.4,0,14.1
					c0.2,7.1,7.2,3.3,7.1,7.7C19.9,65.7,19.8,68.6,19.8,71.6z"/>
			</g>
			<g>
				<path class="st0" d="M74,51.6c2.3,0.5,7.6-1.4,8,1.8c0,1.2-0.7,1.9-2.1,1.9c-4,0-7.9,0-11.9,0c-1.3,0-2.2-0.8-2.2-1.9
					C66.4,50.1,71.6,52,74,51.6z"/>
			</g>
			<g>
				<path class="st0" d="M53.5,64.2c-2.2-0.4-6.8,1.2-7.2-1.9c0-1.1,0.8-1.9,2.1-1.9c3.4,0,6.7,0,10.1,0c1.3,0,2.2,0.8,2.2,1.9
					C60.3,65.4,55.7,63.8,53.5,64.2z"/>
			</g>
			<g>
				<path class="st0" d="M31.2,44.6c-1.9-0.3-5.9,1-6.2-1.7c-0.1-1.1,0.7-2,1.9-2c2.9-0.1,5.8-0.1,8.7,0c1.2,0,2,0.9,1.9,2
					C37.2,45.6,33.2,44.3,31.2,44.6z"/>
			</g>
			<g>
				<path class="st0" d="M57,55.2c-1.8-0.2-5.3,0.8-5.4-1.8c0-1.1,0.8-1.8,2-1.8c2.3,0,4.6,0,7,0c1.1,0,1.9,0.8,1.9,1.8
					C62.4,56,58.8,55.1,57,55.2z"/>
			</g>
			<g>
				<path class="st0" d="M23.2,49.7c3.2-0.7,5.5,2.6,2,3.7c-1.3,0.1-2.6,0.2-3.9,0C17.9,52.3,20.1,49,23.2,49.7z"/>
			</g>
			<g>
				<path class="st0" d="M32.2,53.5c-2.4,0-2.4-3.8,0-3.8C34.6,49.8,34.5,53.5,32.2,53.5z"/>
			</g>
			<g>
				<path class="st0" d="M82,62.2c0.1,2.4-3.6,2.5-3.7,0.2C78.1,60,81.9,59.7,82,62.2z"/>
			</g>
			<g>
				<path class="st0" d="M73.1,64.1c-2.4,0.1-2.5-3.7-0.1-3.8C75.3,60.3,75.5,64.1,73.1,64.1z"/>
			</g>
			<g>
				<path class="st0" d="M65.9,60.4c2.4,0,2.4,3.9-0.1,3.7C63.5,64.1,63.6,60.4,65.9,60.4z"/>
			</g>
		</g>
	</g>
</g>
</svg>
