<?xml version="1.0" encoding="utf-8"?>
<!-- Generator: Adobe Illustrator 24.2.1, SVG Export Plug-In . SVG Version: 6.00 Build 0)  -->
<svg version="1.1" id="Capa_1" xmlns="http://www.w3.org/2000/svg" xmlns:xlink="http://www.w3.org/1999/xlink" x="0px" y="0px"
	 viewBox="0 0 102.7 114.5" style="enable-background:new 0 0 102.7 114.5;" xml:space="preserve">
<style type="text/css">
	.st0{opacity:0.7;fill:#003576;}
	.st1{fill:#003576;}
</style>
<g>
	<g>
		<path class="st0" d="M79.3,60.5c-0.2,1.4-0.4,2.9-0.7,4.3c-2,7.7-6.4,13.7-13.3,17.7c-3.4,2-7,3.2-10.9,3.6
			c-5.9,0.6-11.6-0.5-16.8-3.4c-0.5-0.3-1-0.4-1.5-0.2c-3.1,1-6.3,1.9-9.4,2.9c-0.3,0.1-0.5,0.2-0.8,0.2c-1,0.3-1.8-0.4-1.5-1.5
			c0.2-0.8,0.4-1.7,0.7-2.5c0.8-2.7,1.5-5.4,2.3-8.1c0.1-0.4,0.1-0.7-0.2-1.1c-1.9-3.2-3.2-6.7-3.7-10.4c-1.1-8.4,1.1-15.9,6.6-22.4
			c4.2-4.9,9.5-7.9,15.8-9.2c1-0.2,2.1-0.3,3.1-0.5c1.5,0,3.1,0,4.6,0c0.1,0,0.2,0.1,0.3,0.1c4.1,0.4,7.9,1.6,11.5,3.7
			c6.9,4.1,11.3,10,13.3,17.7c0.4,1.4,0.5,2.9,0.7,4.3C79.3,57.4,79.3,58.9,79.3,60.5z M50.2,32.3c-1.1,0-3.3,0.3-5.5,0.9
			c-7,1.9-12.3,6-15.9,12.3c-2.9,5.1-3.8,10.5-3.1,16.3c0.5,3.6,1.7,6.9,3.7,10c0.4,0.6,0.4,1.2,0.2,1.8c-0.8,2.9-1.6,5.8-2.4,8.6
			c0,0.2-0.2,0.3-0.1,0.5c0.1,0.2,0.3,0,0.5,0c2.8-0.9,5.7-1.7,8.5-2.6c0.7-0.2,1.2-0.2,1.8,0.2c5.2,3.1,10.9,4.3,16.9,3.5
			c6.3-0.9,11.6-3.7,15.8-8.5c5.9-6.8,7.8-14.7,5.6-23.5C73.4,40.3,63,32.3,50.2,32.3z"/>
		<path class="st1" d="M59.3,75.2c-4.9,0-9.4-1.6-13.4-4.5c-5.4-3.9-9.3-9-11.8-15.2c-1.7-4.2-0.8-8.1,1.5-11.8
			c0.5-0.8,1-1.5,1.6-2.2c0.3-0.4,0.7-0.6,1.3-0.7c0.8-0.1,1.5-0.2,2.3-0.2c0.8,0,1.5,0.3,2,1.1c1.3,2.1,2.5,4.3,3.4,6.6
			c0.5,1.3,0.3,2.5-0.3,3.6c-0.4,0.7-0.9,1.3-1.5,1.8c-0.5,0.4-0.5,0.9-0.2,1.5c0.5,1.2,1.3,2.2,2.2,3.1c2.5,2.6,5.3,4.7,8.4,6.5
			c0.9,0.5,1.1,0.5,1.8-0.3c1-1,1.9-2.2,2.7-3.3c0.7-1,1.6-1.3,2.8-0.9c0.6,0.2,1.1,0.5,1.6,0.8c1.9,1.2,3.7,2.4,5.6,3.5
			c0.9,0.5,1,0.8,0.8,1.8c-0.5,2.3-1.3,4.4-2.9,6.1c-1.6,1.6-3.6,2.4-5.8,2.7C60.7,75.2,60,75.2,59.3,75.2z M59.6,72.9
			c0.3,0,0.8,0,1.3-0.1c3.7-0.4,6-2.5,6.8-6.1c0.1-0.3,0-0.4-0.2-0.6c-1.9-1.1-3.7-2.3-5.6-3.5c-0.6-0.4-0.7-0.4-1.1,0.2
			c-1,1.4-2,2.7-3.3,3.7c-1.1,0.9-2.2,1-3.4,0.4c-4.1-2.1-7.7-4.9-10.6-8.5c-0.9-1.2-1.6-2.4-1.9-3.9c-0.1-0.6,0-1.1,0.5-1.6
			c0.6-0.6,1.2-1.3,1.7-2c0.4-0.7,0.6-1.3,0.2-2.1c-0.8-1.7-1.7-3.5-2.6-5.1c-0.6-0.9-2-1-2.7-0.2c-0.9,1.1-1.6,2.3-2.1,3.5
			c-1.1,2.5-1.3,5-0.3,7.6c2.2,5.4,5.5,9.9,10,13.5C50.1,71.2,54.4,72.9,59.6,72.9z"/>
	</g>
</g>
</svg>
