<?xml version="1.0" encoding="utf-8"?>
<!-- Generator: Adobe Illustrator 24.2.1, SVG Export Plug-In . SVG Version: 6.00 Build 0)  -->
<svg version="1.1" id="Capa_1" xmlns="http://www.w3.org/2000/svg" xmlns:xlink="http://www.w3.org/1999/xlink" x="0px" y="0px"
	 viewBox="0 0 102.7 114.5" style="enable-background:new 0 0 102.7 114.5;" xml:space="preserve">
<style type="text/css">
	.st0{clip-path:url(#SVGID_2_);}
	.st1{fill:#003576;}
	.st2{opacity:0.7;fill:#003576;}
</style>
<g>
	<g>
		<g>
			<defs>
				<path id="SVGID_1_" d="M74.5,58.5c0,5.9-4.8,10.7-10.7,10.7c-3.6,0-10.5,3.5-12.4,0.8C50,68.2,53,60.8,53,58.5
					c0-5.9,4.8-10.7,10.7-10.7S74.5,52.6,74.5,58.5z"/>
			</defs>
			<clipPath id="SVGID_2_">
				<use xlink:href="#SVGID_1_"  style="overflow:visible;"/>
			</clipPath>
			<g class="st0">
				<g>
					<g>
						<g>
							<path class="st1" d="M82.7,57.8c-1.3-1.3-2.9-2.3-4.7-2.8c-1.3-0.4-2.6-0.4-3.9-0.4c-0.3,0-0.4-0.1-0.5-0.3
								c-2.5-5.6-8.9-8-14.4-5.3c-4,2-5.9,5.3-6,9.8c0,1.2,0.3,2.4,0.7,3.6c0.3,0.7,0.7,1.5,1.1,2.1c0.1,0.1,0,0.3,0,0.4
								c-0.1,0.1-0.1,0.2-0.2,0.4l0,0c-0.5,1-1,2-1.5,3c-0.1,0.3-0.2,0.5,0,0.7c0.2,0.2,0.5,0.2,0.8,0.1c0.2-0.1,0.5-0.2,0.7-0.3
								c0.9-0.5,1.9-0.9,2.8-1.4c0.2-0.1,0.3,0,0.4,0.1c1,0.7,2.1,1.1,3.3,1.4c1.2,0.3,2.4,0.4,3.6,0.3c0.2,0,0.3,0,0.4,0.2
								c0.2,0.5,0.6,1.3,0.6,1.3c0.5,0.8,19.8,4.7,19.8,4.6c-0.1-0.2-0.1-7.9,0-8.9c0-0.1,0-0.2,0-0.3c-0.1-0.1-0.1-0.1,0-0.2
								c0-0.3,0-0.6,0-0.9c-0.1,0-0.1-0.1-0.1-0.2c0,0,0,0,0,0c0-0.1,0-0.1,0.1-0.1C85.7,64.4,84.1,59.3,82.7,57.8z M63.3,68
								c-1.8-0.1-3.4-0.7-4.8-1.7c-0.4-0.3-0.7-0.3-1.1-0.1c-0.5,0.3-1.1,0.5-1.6,0.8c0,0,0,0,0,0c-0.2,0.1-0.4,0.2-0.7,0.3
								c0.2-0.3,0.3-0.6,0.5-0.9c0.2-0.5,0.5-1,0.7-1.4c0.2-0.3,0.1-0.6-0.1-0.9c-1-1.4-1.6-3-1.8-4.7c-0.1-0.8-0.1-1.6,0.1-2.4
								c0,0,0,0,0,0c0,0,0,0,0,0c0-0.1,0-0.3,0.1-0.4c0.6-2.6,2-4.6,4.2-6.1c1.9-1.2,3.9-1.7,6.1-1.4c2.6,0.3,4.8,1.5,6.4,3.5
								c0.9,1.2,1.6,2.5,1.9,3.9l0,0c0.1,0.1,0,0.2,0.1,0.3c0,0,0,0,0,0c0.1,0.1,0.1,0.2,0,0.3l0,0c0.4,3.6-0.7,6.6-3.6,8.9
								C67.8,67.5,65.7,68.1,63.3,68z M83.2,70.1c-0.1,0.2-0.2,0.4-0.3,0.5c-0.3,0.4-0.3,0.7-0.1,1.1c0.3,0.6,0.6,1.2,0.9,1.9
								c0,0.1,0.1,0.2,0.1,0.3c-0.6-0.3-1.3-0.6-1.9-1c-0.6-0.4-1-0.3-1.6,0.1c-4.2,2.9-10.4,1.7-13.1-2.7c0-0.1-0.1-0.1-0.1-0.2v0
								l0,0c-0.3-0.4-0.5-0.9-0.7-1.3c-0.1-0.2,0.1-0.2,0.2-0.2c0.6-0.2,1.2-0.4,1.8-0.6c2.5-1.2,4.3-3,5.4-5.6
								c0-0.1,0.1-0.1,0.1-0.2c0.5-1.5,0.8-2.9,0.7-4.5c0-0.6-0.1-1.3-0.3-1.9c-0.1-0.2-0.1-0.3,0.2-0.3c1.8,0,3.5,0.2,5,1.1
								c2,1.1,3.5,2.7,4.4,4.8C85,64.5,84.8,67.4,83.2,70.1z"/>
						</g>
					</g>
					<path class="st1" d="M85.7,64.6c0,0.1,0,0.1,0,0.2C85.7,64.8,85.7,64.7,85.7,64.6C85.7,64.6,85.7,64.6,85.7,64.6
						C85.7,64.6,85.7,64.6,85.7,64.6z"/>
					<path class="st1" d="M85.7,65.9c0-0.1,0-0.1,0-0.2C85.7,65.8,85.7,65.8,85.7,65.9z"/>
					<path class="st1" d="M85.7,64.6C85.7,64.6,85.7,64.6,85.7,64.6c0,0,0-0.1,0-0.1C85.7,64.5,85.7,64.6,85.7,64.6z"/>
					<path class="st1" d="M85.7,64.6C85.7,64.6,85.7,64.6,85.7,64.6L85.7,64.6C85.7,64.6,85.7,64.6,85.7,64.6
						C85.7,64.6,85.7,64.6,85.7,64.6z"/>
					<g>
						<g>
							<path class="st1" d="M68.4,56.8c-0.9,0-1.7,0.7-1.7,1.7c0,0.9,0.7,1.7,1.7,1.7c0.9,0,1.7-0.7,1.7-1.7
								C70.1,57.6,69.3,56.8,68.4,56.8z M68.4,59.1c-0.3,0-0.5-0.2-0.5-0.5c0-0.3,0.2-0.6,0.5-0.6c0.3,0,0.5,0.2,0.5,0.5
								C68.9,58.8,68.7,59.1,68.4,59.1z"/>
						</g>
					</g>
					<g>
						<g>
							<path class="st1" d="M59.4,56.8c-0.9,0-1.7,0.7-1.7,1.7c0,0.9,0.7,1.7,1.7,1.7c0.9,0,1.7-0.7,1.7-1.7
								C61.1,57.6,60.4,56.8,59.4,56.8z M59.4,59.1c-0.3,0-0.5-0.3-0.5-0.6c0-0.3,0.3-0.5,0.6-0.5c0.3,0,0.5,0.3,0.5,0.6
								C60,58.8,59.7,59.1,59.4,59.1z"/>
						</g>
					</g>
					<g>
						<g>
							<path class="st1" d="M63.9,56.8c-0.9,0-1.7,0.7-1.7,1.7c0,0.9,0.8,1.7,1.7,1.7c0.9,0,1.7-0.7,1.7-1.7
								C65.6,57.6,64.8,56.8,63.9,56.8z M63.9,59.1c-0.3,0-0.6-0.3-0.6-0.6c0-0.3,0.3-0.5,0.5-0.5c0.3,0,0.6,0.3,0.5,0.6
								C64.4,58.8,64.2,59.1,63.9,59.1z"/>
						</g>
					</g>
					<path class="st1" d="M79.5,63.5c-0.9,0-1.7,0.8-1.7,1.7c0,0.9,0.8,1.7,1.7,1.7c0.9,0,1.7-0.8,1.6-1.7
						C81.2,64.3,80.5,63.5,79.5,63.5z M79.6,65.8c-0.3,0-0.6-0.2-0.6-0.5c0-0.3,0.3-0.6,0.6-0.6c0.3,0,0.5,0.3,0.6,0.5
						C80.1,65.5,79.9,65.7,79.6,65.8z"/>
					<path class="st1" d="M75.1,63.5c-0.9,0-1.7,0.7-1.7,1.6c0,0.9,0.7,1.7,1.6,1.7c0.9,0,1.7-0.7,1.7-1.6
						C76.8,64.3,76,63.6,75.1,63.5z M75.1,65.8c-0.3,0-0.6-0.3-0.5-0.6c0-0.3,0.3-0.5,0.6-0.5c0.3,0,0.6,0.3,0.5,0.6
						C75.6,65.5,75.4,65.8,75.1,65.8z"/>
				</g>
			</g>
		</g>
		<path class="st2" d="M59.8,68.6c0,5.6,0,11.2,0,16.8c0,0.5,0,1-0.2,1.5c-0.4,1.3-1.5,2.1-3.1,2.1c-2.2,0-4.4,0-6.6,0
			c-5.7,0-11.4,0-17.1,0c-0.9,0-1.8-0.2-2.5-0.8c-0.8-0.7-1-1.7-1-2.7c0-8.6,0-17.3,0-25.9c0-8.6,0-17.3,0-25.9
			c0-0.9,0.2-1.7,0.8-2.4c0.6-0.7,1.4-1,2.3-1c0.9,0,1.7,0,2.6,0c0.4,0,0.5,0.1,0.6,0.5c0.2,1.1,0.4,2.2,0.7,3.4
			c0.2,1,0.5,1.2,1.5,1.2c4.5,0,9,0,13.4,0c1.1,0,1.3-0.2,1.5-1.3c0.2-1.1,0.4-2.2,0.7-3.3c0.1-0.3,0.1-0.5,0.5-0.5
			c1,0,2.1-0.1,3.1,0.1c1.7,0.2,2.6,1.3,2.7,3c0,0.2,0,0.4,0,0.6c0,4.9,0,9.8,0,14.6c0.7-0.3,1.4-0.5,2.1-0.6c0-4.9,0-9.7,0-14.6
			c0-3.1-2.2-5.2-5.2-5.2c-8,0-16.1,0-24.1,0c-3.1,0-5.2,2.2-5.2,5.2c0,17.5,0,35.1,0,52.6c0,3,2.2,5.2,5.2,5.2c8.1,0,16.1,0,24.2,0
			c0.3,0,0.7,0,1-0.1c2.5-0.5,4.2-2.5,4.2-5.1c0-5.7,0-11.4,0-17.1C61.2,68.8,60.5,68.7,59.8,68.6z M38.4,30.2c2.1,0,4.1,0,6.2,0
			c2,0,4.1,0,6.1,0c0.6,0,0.7,0.2,0.6,0.7c-0.1,0.6-0.3,1.2-0.4,1.7c-0.1,0.4-0.3,0.5-0.7,0.5c-3.8,0-7.5,0-11.3,0
			c-0.4,0-0.6-0.1-0.7-0.6c-0.1-0.6-0.2-1.2-0.4-1.8C37.8,30.4,37.9,30.2,38.4,30.2z"/>
	</g>
</g>
</svg>
